<?xml version="1.0" encoding="UTF-8" standalone="no"?>
<!-- Created by diasvg.py -->
<svg width="35.015cm" height="23.248cm" viewBox="15.900 0.255 50.915 23.503"
 xmlns="http://www.w3.org/2000/svg"
 xmlns:xlink="http://www.w3.org/1999/xlink">
<line x1="29.000" y1="13.000" x2="35.000" y2="13.000" stroke="#000000" stroke-width="0.100" />
<line x1="35.000" y1="13.000" x2="35.000" y2="9.000" stroke="#000000" stroke-width="0.100" />
<line x1="35.000" y1="9.000" x2="29.000" y2="9.000" stroke="#000000" stroke-width="0.100" />
<line x1="29.000" y1="9.000" x2="29.000" y2="13.000" stroke="#000000" stroke-width="0.100" />
<line x1="29.000" y1="9.000" x2="37.000" y2="5.000" stroke="#000000" stroke-width="0.100" />
<line x1="35.000" y1="9.000" x2="40.000" y2="15.000" stroke="#000000" stroke-width="0.100" />
<line x1="35.000" y1="13.000" x2="27.000" y2="17.000" stroke="#000000" stroke-width="0.100" />
<line x1="29.000" y1="13.000" x2="24.000" y2="6.000" stroke="#000000" stroke-width="0.100" />
<line x1="37.000" y1="5.000" x2="40.000" y2="10.000" stroke="#000000" stroke-width="0.100" />
<line x1="40.000" y1="15.000" x2="34.000" y2="17.000" stroke="#000000" stroke-width="0.100" />
<line x1="24.000" y1="6.000" x2="30.000" y2="4.000" stroke="#000000" stroke-width="0.100" />
<line x1="27.000" y1="17.000" x2="24.000" y2="12.000" stroke="#000000" stroke-width="0.100" />
<line x1="40.000" y1="10.000" x2="43.000" y2="10.000" stroke="#000000" stroke-width="0.100" />
<line x1="43.000" y1="10.000" x2="43.000" y2="13.000" stroke="#000000" stroke-width="0.100" />
<line x1="43.000" y1="13.000" x2="40.000" y2="13.000" stroke="#000000" stroke-width="0.100" />
<line x1="40.000" y1="13.000" x2="40.000" y2="10.000" stroke="#000000" stroke-width="0.100" />
<line x1="34.000" y1="17.000" x2="36.000" y2="20.000" stroke="#000000" stroke-width="0.100" />
<line x1="36.000" y1="20.000" x2="43.000" y2="17.000" stroke="#000000" stroke-width="0.100" />
<line x1="43.000" y1="17.000" x2="40.000" y2="15.000" stroke="#000000" stroke-width="0.100" />
<line x1="24.000" y1="12.000" x2="21.000" y2="14.000" stroke="#000000" stroke-width="0.100" />
<line x1="21.000" y1="14.000" x2="25.000" y2="19.000" stroke="#000000" stroke-width="0.100" />
<line x1="25.000" y1="19.000" x2="27.000" y2="17.000" stroke="#000000" stroke-width="0.100" />
<line x1="18.000" y1="2.000" x2="48.000" y2="2.000" stroke="#000000" stroke-width="0.100" />
<line x1="48.000" y1="2.000" x2="48.000" y2="22.000" stroke="#000000" stroke-width="0.100" />
<line x1="48.000" y1="22.000" x2="19.000" y2="22.000" stroke="#000000" stroke-width="0.100" />
<line x1="19.000" y1="22.000" x2="18.000" y2="2.000" stroke="#000000" stroke-width="0.100" />
<line x1="18.000" y1="2.000" x2="30.000" y2="4.000" stroke="#000000" stroke-width="0.100" />
<line x1="30.000" y1="4.000" x2="30.000" y2="3.000" stroke="#000000" stroke-width="0.100" />
<line x1="30.000" y1="3.000" x2="31.000" y2="3.000" stroke="#000000" stroke-width="0.100" />
<line x1="31.000" y1="3.000" x2="31.000" y2="4.000" stroke="#000000" stroke-width="0.100" />
<line x1="31.000" y1="4.000" x2="30.000" y2="4.000" stroke="#000000" stroke-width="0.100" />
<line x1="18.000" y1="2.000" x2="17.000" y2="1.000" stroke="#000000" stroke-width="0.100" />
<line x1="17.000" y1="1.000" x2="17.000" y2="23.000" stroke="#000000" stroke-width="0.100" />
<line x1="17.000" y1="1.000" x2="49.000" y2="1.000" stroke="#000000" stroke-width="0.100" />
<line x1="49.000" y1="1.000" x2="49.000" y2="23.000" stroke="#000000" stroke-width="0.100" />
<line x1="49.000" y1="23.000" x2="17.000" y2="23.000" stroke="#000000" stroke-width="0.100" />
<text x="35.300" y="13.700"  fill="#000000" text-anchor="start" font-size="0.80" font-family="sans" font-style="normal" font-weight="400">
1</text>
<text x="35.350" y="8.450"  fill="#000000" text-anchor="start" font-size="0.80" font-family="sans" font-style="normal" font-weight="400">
2</text>
<text x="28.100" y="8.650"  fill="#000000" text-anchor="start" font-size="0.80" font-family="sans" font-style="normal" font-weight="400">
3</text>
<text x="36.850" y="4.250"  fill="#000000" text-anchor="start" font-size="0.80" font-family="sans" font-style="normal" font-weight="400">
4</text>
<text x="27.050" y="17.650"  fill="#000000" text-anchor="start" font-size="0.80" font-family="sans" font-style="normal" font-weight="400">
6</text>
<text x="23.250" y="5.900"  fill="#000000" text-anchor="start" font-size="0.80" font-family="sans" font-style="normal" font-weight="400">
7</text>
<text x="40.500" y="9.450"  fill="#000000" text-anchor="start" font-size="0.80" font-family="sans" font-style="normal" font-weight="400">
8</text>
<text x="40.750" y="14.600"  fill="#000000" text-anchor="start" font-size="0.80" font-family="sans" font-style="normal" font-weight="400">
5</text>
<text x="28.850" y="13.650"  fill="#000000" text-anchor="start" font-size="0.80" font-family="sans" font-style="normal" font-weight="400">
0</text>
<text x="33.000" y="17.150"  fill="#000000" text-anchor="start" font-size="0.80" font-family="sans" font-style="normal" font-weight="400">
9</text>
<text x="29.900" y="4.900"  fill="#000000" text-anchor="start" font-size="0.80" font-family="sans" font-style="normal" font-weight="400">
10</text>
<text x="23.500" y="11.050"  fill="#000000" text-anchor="start" font-size="0.80" font-family="sans" font-style="normal" font-weight="400">
11</text>
<text x="43.850" y="9.900"  fill="#000000" text-anchor="start" font-size="0.80" font-family="sans" font-style="normal" font-weight="400">
12</text>
<text x="43.800" y="12.950"  fill="#000000" text-anchor="start" font-size="0.80" font-family="sans" font-style="normal" font-weight="400">
13</text>
<text x="39.200" y="12.750"  fill="#000000" text-anchor="start" font-size="0.80" font-family="sans" font-style="normal" font-weight="400">
14</text>
<text x="37.250" y="20.500"  fill="#000000" text-anchor="start" font-size="0.80" font-family="sans" font-style="normal" font-weight="400">
15</text>
<text x="44.000" y="16.950"  fill="#000000" text-anchor="start" font-size="0.80" font-family="sans" font-style="normal" font-weight="400">
16</text>
<text x="19.500" y="13.950"  fill="#000000" text-anchor="start" font-size="0.80" font-family="sans" font-style="normal" font-weight="400">
17</text>
<text x="23.650" y="19.400"  fill="#000000" text-anchor="start" font-size="0.80" font-family="sans" font-style="normal" font-weight="400">
18</text>
<text x="18.350" y="2.800"  fill="#000000" text-anchor="start" font-size="0.80" font-family="sans" font-style="normal" font-weight="400">
19</text>
<text x="46.850" y="2.700"  fill="#000000" text-anchor="start" font-size="0.80" font-family="sans" font-style="normal" font-weight="400">
20</text>
<text x="46.800" y="21.400"  fill="#000000" text-anchor="start" font-size="0.80" font-family="sans" font-style="normal" font-weight="400">
21</text>
<text x="19.900" y="20.950"  fill="#000000" text-anchor="start" font-size="0.80" font-family="sans" font-style="normal" font-weight="400">
22</text>
<text x="29.200" y="2.650"  fill="#000000" text-anchor="start" font-size="0.80" font-family="sans" font-style="normal" font-weight="400">
23</text>
<text x="31.700" y="2.850"  fill="#000000" text-anchor="start" font-size="0.80" font-family="sans" font-style="normal" font-weight="400">
24</text>
<text x="31.650" y="4.000"  fill="#000000" text-anchor="start" font-size="0.80" font-family="sans" font-style="normal" font-weight="400">
25</text>
<text x="15.900" y="1.200"  fill="#000000" text-anchor="start" font-size="0.80" font-family="sans" font-style="normal" font-weight="400">
26</text>
<text x="16.100" y="23.200"  fill="#000000" text-anchor="start" font-size="0.80" font-family="sans" font-style="normal" font-weight="400">
27</text>
<text x="50.100" y="0.850"  fill="#000000" text-anchor="start" font-size="0.80" font-family="sans" font-style="normal" font-weight="400">
28</text>
<text x="49.750" y="23.350"  fill="#000000" text-anchor="start" font-size="0.80" font-family="sans" font-style="normal" font-weight="400">
29</text>
<line x1="43.000" y1="10.000" x2="48.000" y2="2.000" stroke="#000000" stroke-width="0.100" />
<line x1="48.000" y1="22.000" x2="49.000" y2="23.000" stroke="#000000" stroke-width="0.100" />
<line x1="27.000" y1="17.000" x2="40.000" y2="15.000" stroke="#000000" stroke-width="0.100" />
</svg>