<?xml version="1.0" encoding="UTF-8" standalone="no"?>
<!-- Created by diasvg.py -->
<svg width="33.141cm" height="22.141cm" viewBox="16.929 0.929 50.071 23.071"
 xmlns="http://www.w3.org/2000/svg"
 xmlns:xlink="http://www.w3.org/1999/xlink">
<line x1="17.000" y1="1.000" x2="17.000" y2="23.000" stroke="#000000" stroke-width="0.100" />
<line x1="17.000" y1="23.000" x2="50.000" y2="23.000" stroke="#000000" stroke-width="0.100" />
<line x1="50.000" y1="23.000" x2="50.000" y2="1.000" stroke="#000000" stroke-width="0.100" />
<line x1="50.000" y1="1.000" x2="17.000" y2="1.000" stroke="#000000" stroke-width="0.100" />
<line x1="18.000" y1="2.000" x2="17.000" y2="1.000" stroke="#000000" stroke-width="0.100" />
<line x1="18.000" y1="2.000" x2="50.000" y2="1.000" stroke="#000000" stroke-width="0.100" />
<line x1="49.000" y1="2.000" x2="50.000" y2="1.000" stroke="#000000" stroke-width="0.100" />
<line x1="49.000" y1="2.000" x2="50.000" y2="23.000" stroke="#000000" stroke-width="0.100" />
<line x1="49.000" y1="22.000" x2="50.000" y2="23.000" stroke="#000000" stroke-width="0.100" />
<line x1="49.000" y1="22.000" x2="17.000" y2="23.000" stroke="#000000" stroke-width="0.100" />
<line x1="17.000" y1="23.000" x2="18.000" y2="22.000" stroke="#000000" stroke-width="0.100" />
<line x1="18.000" y1="22.000" x2="17.000" y2="1.000" stroke="#000000" stroke-width="0.100" />
<line x1="18.000" y1="2.000" x2="18.000" y2="22.000" stroke="#000000" stroke-width="0.100" />
<line x1="18.000" y1="22.000" x2="49.000" y2="22.000" stroke="#000000" stroke-width="0.100" />
<line x1="49.000" y1="2.000" x2="49.000" y2="22.000" stroke="#000000" stroke-width="0.100" />
<line x1="49.000" y1="2.000" x2="18.000" y2="2.000" stroke="#000000" stroke-width="0.100" />
<line x1="18.000" y1="2.000" x2="19.000" y2="3.000" stroke="#000000" stroke-width="0.100" />
<line x1="49.000" y1="2.000" x2="48.000" y2="3.000" stroke="#000000" stroke-width="0.100" />
<line x1="49.000" y1="22.000" x2="48.000" y2="21.000" stroke="#000000" stroke-width="0.100" />
<line x1="18.000" y1="22.000" x2="19.000" y2="21.000" stroke="#000000" stroke-width="0.100" />
<line x1="19.000" y1="21.000" x2="49.000" y2="22.000" stroke="#000000" stroke-width="0.100" />
<line x1="19.000" y1="21.000" x2="48.000" y2="21.000" stroke="#000000" stroke-width="0.100" />
<line x1="48.000" y1="21.000" x2="49.000" y2="2.000" stroke="#000000" stroke-width="0.100" />
<line x1="48.000" y1="3.000" x2="48.000" y2="21.000" stroke="#000000" stroke-width="0.100" />
<line x1="48.000" y1="3.000" x2="18.000" y2="2.000" stroke="#000000" stroke-width="0.100" />
<line x1="19.000" y1="3.000" x2="48.000" y2="3.000" stroke="#000000" stroke-width="0.100" />
<line x1="19.000" y1="3.000" x2="18.000" y2="22.000" stroke="#000000" stroke-width="0.100" />
<line x1="19.000" y1="21.000" x2="19.000" y2="3.000" stroke="#000000" stroke-width="0.100" />
<line x1="19.000" y1="21.000" x2="24.000" y2="12.000" stroke="#000000" stroke-width="0.100" />
<line x1="29.000" y1="13.000" x2="35.000" y2="13.000" stroke="#000000" stroke-width="0.100" />
<line x1="35.000" y1="13.000" x2="35.000" y2="9.000" stroke="#000000" stroke-width="0.100" />
<line x1="35.000" y1="9.000" x2="29.000" y2="9.000" stroke="#000000" stroke-width="0.100" />
<line x1="29.000" y1="9.000" x2="29.000" y2="13.000" stroke="#000000" stroke-width="0.100" />
<line x1="29.000" y1="9.000" x2="37.000" y2="5.000" stroke="#000000" stroke-width="0.100" />
<line x1="35.000" y1="9.000" x2="40.000" y2="15.000" stroke="#000000" stroke-width="0.100" />
<line x1="35.000" y1="13.000" x2="27.000" y2="17.000" stroke="#000000" stroke-width="0.100" />
<line x1="29.000" y1="13.000" x2="24.000" y2="6.000" stroke="#000000" stroke-width="0.100" />
<line x1="37.000" y1="5.000" x2="40.000" y2="10.000" stroke="#000000" stroke-width="0.100" />
<line x1="40.000" y1="15.000" x2="34.000" y2="17.000" stroke="#000000" stroke-width="0.100" />
<line x1="24.000" y1="6.000" x2="30.000" y2="4.000" stroke="#000000" stroke-width="0.100" />
<line x1="27.000" y1="17.000" x2="24.000" y2="12.000" stroke="#000000" stroke-width="0.100" />
<line x1="34.000" y1="17.000" x2="48.000" y2="21.000" stroke="#000000" stroke-width="0.100" />
<line x1="40.000" y1="10.000" x2="48.000" y2="3.000" stroke="#000000" stroke-width="0.100" />
<line x1="30.000" y1="4.000" x2="19.000" y2="3.000" stroke="#000000" stroke-width="0.100" />
</svg>