<?xml version="1.0" encoding="UTF-8" standalone="no"?>
<!-- Created by diasvg.py -->
<svg width="4.200cm" height="4.200cm" viewBox="-0.100 -0.100 4.100 4.100"
 xmlns="http://www.w3.org/2000/svg"
 xmlns:xlink="http://www.w3.org/1999/xlink">
<line x1="0.000" y1="0.000" x2="1.000" y2="0.000" stroke="#FF0000" stroke-width="0.200" />
<line x1="0.000" y1="1.000" x2="0.000" y2="0.000" stroke="#000000" stroke-width="0.200" />
<line x1="0.000" y1="1.000" x2="1.000" y2="1.000" stroke="#000000" stroke-width="0.200" />
<line x1="0.000" y1="2.000" x2="0.000" y2="1.000" stroke="#000000" stroke-width="0.200" />
<line x1="0.000" y1="3.000" x2="0.000" y2="2.000" stroke="#000000" stroke-width="0.200" />
<line x1="0.000" y1="4.000" x2="0.000" y2="3.000" stroke="#000000" stroke-width="0.200" />
<line x1="0.000" y1="4.000" x2="1.000" y2="4.000" stroke="#00FF00" stroke-width="0.200" />
<line x1="1.000" y1="0.000" x2="2.000" y2="0.000" stroke="#000000" stroke-width="0.200" />
<line x1="1.000" y1="1.000" x2="2.000" y2="1.000" stroke="#E7ED23" stroke-width="0.200" />
<line x1="1.000" y1="2.000" x2="1.000" y2="1.000" stroke="#E7ED23" stroke-width="0.200" />
<line x1="1.000" y1="2.000" x2="2.000" y2="2.000" stroke="#E7ED23" stroke-width="0.200" />
<line x1="1.000" y1="3.000" x2="1.000" y2="2.000" stroke="#E7ED23" stroke-width="0.200" />
<line x1="1.000" y1="3.000" x2="2.000" y2="3.000" stroke="#E7ED23" stroke-width="0.200" />
<line x1="1.000" y1="4.000" x2="1.000" y2="3.000" stroke="#000000" stroke-width="0.200" />
<line x1="1.000" y1="4.000" x2="2.000" y2="4.000" stroke="#000000" stroke-width="0.200" />
<line x1="2.000" y1="0.000" x2="3.000" y2="0.000" stroke="#000000" stroke-width="0.200" />
<line x1="2.000" y1="1.000" x2="2.000" y2="0.000" stroke="#000000" stroke-width="0.200" />
<line x1="2.000" y1="1.000" x2="3.000" y2="1.000" stroke="#E7ED23" stroke-width="0.200" />
<line x1="2.000" y1="2.000" x2="2.000" y2="1.000" stroke="#E7ED23" stroke-width="0.200" />
<line x1="2.000" y1="2.000" x2="3.000" y2="2.000" stroke="#E7ED23" stroke-width="0.200" />
<line x1="2.000" y1="3.000" x2="2.000" y2="2.000" stroke="#E7ED23" stroke-width="0.200" />
<line x1="2.000" y1="3.000" x2="3.000" y2="3.000" stroke="#E7ED23" stroke-width="0.200" />
<line x1="2.000" y1="4.000" x2="3.000" y2="4.000" stroke="#000000" stroke-width="0.200" />
<line x1="3.000" y1="0.000" x2="4.000" y2="0.000" stroke="#00FF00" stroke-width="0.200" />
<line x1="3.000" y1="1.000" x2="3.000" y2="0.000" stroke="#E7ED23" stroke-width="0.200" />
<line x1="3.000" y1="1.000" x2="4.000" y2="1.000" stroke="#000000" stroke-width="0.200" />
<line x1="3.000" y1="2.000" x2="3.000" y2="1.000" stroke="#E7ED23" stroke-width="0.200" />
<line x1="3.000" y1="2.000" x2="4.000" y2="2.000" stroke="#000000" stroke-width="0.200" />
<line x1="3.000" y1="3.000" x2="3.000" y2="2.000" stroke="#E7ED23" stroke-width="0.200" />
<line x1="3.000" y1="4.000" x2="4.000" y2="4.000" stroke="#000000" stroke-width="0.200" />
<line x1="4.000" y1="1.000" x2="4.000" y2="0.000" stroke="#000000" stroke-width="0.200" />
<line x1="4.000" y1="2.000" x2="4.000" y2="1.000" stroke="#000000" stroke-width="0.200" />
<line x1="4.000" y1="3.000" x2="4.000" y2="2.000" stroke="#000000" stroke-width="0.200" />
<line x1="4.000" y1="4.000" x2="4.000" y2="3.000" stroke="#FF0000" stroke-width="0.200" />
</svg>