<?xml version="1.0" encoding="UTF-8" standalone="no"?>
<!-- Created by diasvg.py -->
<svg width="20.884cm" height="18.854cm" viewBox="2.334 0.674 23.217 19.528"
 xmlns="http://www.w3.org/2000/svg"
 xmlns:xlink="http://www.w3.org/1999/xlink">
<line x1="8.000" y1="8.000" x2="11.000" y2="8.000" stroke="#000000" stroke-width="0.100" />
<line x1="11.000" y1="8.000" x2="14.000" y2="8.000" stroke="#000000" stroke-width="0.100" />
<line x1="11.000" y1="8.000" x2="11.000" y2="11.000" stroke="#000000" stroke-width="0.100" />
<line x1="14.000" y1="8.000" x2="14.000" y2="11.000" stroke="#000000" stroke-width="0.100" />
<line x1="14.000" y1="11.000" x2="11.000" y2="11.000" stroke="#000000" stroke-width="0.100" />
<line x1="8.000" y1="8.000" x2="8.000" y2="11.000" stroke="#000000" stroke-width="0.100" />
<line x1="8.000" y1="11.000" x2="11.000" y2="11.000" stroke="#000000" stroke-width="0.100" />
<line x1="11.000" y1="11.000" x2="11.000" y2="14.000" stroke="#000000" stroke-width="0.100" />
<line x1="11.000" y1="14.000" x2="16.000" y2="14.000" stroke="#000000" stroke-width="0.100" />
<line x1="16.000" y1="14.000" x2="16.000" y2="6.000" stroke="#000000" stroke-width="0.100" />
<line x1="16.000" y1="6.000" x2="11.000" y2="6.000" stroke="#000000" stroke-width="0.100" />
<line x1="11.000" y1="6.000" x2="11.000" y2="8.000" stroke="#000000" stroke-width="0.100" />
<line x1="11.000" y1="6.000" x2="7.000" y2="6.000" stroke="#000000" stroke-width="0.100" />
<line x1="7.000" y1="6.000" x2="7.000" y2="14.000" stroke="#000000" stroke-width="0.100" />
<line x1="7.000" y1="14.000" x2="11.000" y2="14.000" stroke="#000000" stroke-width="0.100" />
<line x1="7.000" y1="6.000" x2="7.000" y2="4.000" stroke="#000000" stroke-width="0.100" />
<line x1="7.000" y1="4.000" x2="18.000" y2="4.000" stroke="#000000" stroke-width="0.100" />
<line x1="18.000" y1="4.000" x2="18.000" y2="14.000" stroke="#000000" stroke-width="0.100" />
<line x1="18.000" y1="14.000" x2="16.000" y2="14.000" stroke="#000000" stroke-width="0.100" />
<line x1="7.000" y1="4.000" x2="5.000" y2="4.000" stroke="#000000" stroke-width="0.100" />
<line x1="5.000" y1="4.000" x2="5.000" y2="16.000" stroke="#000000" stroke-width="0.100" />
<line x1="5.000" y1="16.000" x2="20.000" y2="16.000" stroke="#000000" stroke-width="0.100" />
<line x1="20.000" y1="16.000" x2="20.000" y2="2.000" stroke="#000000" stroke-width="0.100" />
<line x1="20.000" y1="2.000" x2="18.000" y2="2.000" stroke="#000000" stroke-width="0.100" />
<line x1="18.000" y1="2.000" x2="18.000" y2="4.000" stroke="#000000" stroke-width="0.100" />
<line x1="18.000" y1="2.000" x2="3.000" y2="2.000" stroke="#000000" stroke-width="0.100" />
<line x1="3.000" y1="2.000" x2="3.000" y2="18.000" stroke="#000000" stroke-width="0.100" />
<line x1="3.000" y1="18.000" x2="22.000" y2="18.000" stroke="#000000" stroke-width="0.100" />
<line x1="22.000" y1="18.000" x2="22.000" y2="2.000" stroke="#000000" stroke-width="0.100" />
<line x1="22.000" y1="2.000" x2="20.000" y2="2.000" stroke="#000000" stroke-width="0.100" />
<text x="8.000" y="7.350"  fill="#000000" text-anchor="start" font-size="0.80" font-family="sans" font-style="normal" font-weight="400">
0</text>
<text x="10.650" y="7.550"  fill="#000000" text-anchor="start" font-size="0.80" font-family="sans" font-style="normal" font-weight="400">
1</text>
<text x="13.850" y="7.300"  fill="#000000" text-anchor="start" font-size="0.80" font-family="sans" font-style="normal" font-weight="400">
2</text>
<text x="11.350" y="11.750"  fill="#000000" text-anchor="start" font-size="0.80" font-family="sans" font-style="normal" font-weight="400">
3</text>
<text x="14.250" y="11.500"  fill="#000000" text-anchor="start" font-size="0.80" font-family="sans" font-style="normal" font-weight="400">
4</text>
<text x="7.850" y="11.550"  fill="#000000" text-anchor="start" font-size="0.80" font-family="sans" font-style="normal" font-weight="400">
5</text>
<text x="11.600" y="13.550"  fill="#000000" text-anchor="start" font-size="0.80" font-family="sans" font-style="normal" font-weight="400">
6</text>
<text x="15.950" y="14.500"  fill="#000000" text-anchor="start" font-size="0.80" font-family="sans" font-style="normal" font-weight="400">
7</text>
<text x="16.550" y="5.900"  fill="#000000" text-anchor="start" font-size="0.80" font-family="sans" font-style="normal" font-weight="400">
8</text>
<text x="10.950" y="5.550"  fill="#000000" text-anchor="start" font-size="0.80" font-family="sans" font-style="normal" font-weight="400">
9</text>
<text x="6.034" y="6.038"  fill="#000000" text-anchor="start" font-size="0.80" font-family="sans" font-style="normal" font-weight="400">
10</text>
<text x="5.934" y="14.088"  fill="#000000" text-anchor="start" font-size="0.80" font-family="sans" font-style="normal" font-weight="400">
11</text>
<text x="6.934" y="3.338"  fill="#000000" text-anchor="start" font-size="0.80" font-family="sans" font-style="normal" font-weight="400">
12</text>
<text x="18.784" y="3.988"  fill="#000000" text-anchor="start" font-size="0.80" font-family="sans" font-style="normal" font-weight="400">
13</text>
<text x="18.384" y="14.338"  fill="#000000" text-anchor="start" font-size="0.80" font-family="sans" font-style="normal" font-weight="400">
14</text>
<text x="4.334" y="3.788"  fill="#000000" text-anchor="start" font-size="0.80" font-family="sans" font-style="normal" font-weight="400">
15</text>
<text x="4.034" y="16.488"  fill="#000000" text-anchor="start" font-size="0.80" font-family="sans" font-style="normal" font-weight="400">
16</text>
<text x="19.884" y="16.638"  fill="#000000" text-anchor="start" font-size="0.80" font-family="sans" font-style="normal" font-weight="400">
17</text>
<text x="19.284" y="1.438"  fill="#000000" text-anchor="start" font-size="0.80" font-family="sans" font-style="normal" font-weight="400">
18</text>
<text x="17.434" y="1.438"  fill="#000000" text-anchor="start" font-size="0.80" font-family="sans" font-style="normal" font-weight="400">
19</text>
<text x="2.334" y="1.288"  fill="#000000" text-anchor="start" font-size="0.80" font-family="sans" font-style="normal" font-weight="400">
20</text>
<text x="2.334" y="18.788"  fill="#000000" text-anchor="start" font-size="0.80" font-family="sans" font-style="normal" font-weight="400">
21</text>
<text x="22.034" y="19.338"  fill="#000000" text-anchor="start" font-size="0.80" font-family="sans" font-style="normal" font-weight="400">
22</text>
<text x="22.384" y="1.588"  fill="#000000" text-anchor="start" font-size="0.80" font-family="sans" font-style="normal" font-weight="400">
23</text>
</svg>